<?xml version="1.0" encoding="UTF-8"?>
<svg id="Layer_2" data-name="Layer 2" xmlns="http://www.w3.org/2000/svg" viewBox="0 0 656.7 232.78">
  <defs>
    <style>
      .cls-1 {
        fill: #030000;
      }

      .cls-2 {
        opacity: .75;
      }
    </style>
  </defs>
  <g id="Layer_1-2" data-name="Layer 1">
    <g class="cls-2">
      <g>
        <path class="cls-1" d="M374.67,2.24c4.76,0,9.33-.08,13.9,.09,.64,.02,1.49,1.15,1.83,1.94,7.51,17.93,14.95,35.88,22.41,53.83,2.17,5.21,4.34,10.41,6.69,16.03,2.85-6.82,5.54-13.21,8.21-19.61,6.98-16.72,13.99-33.43,20.91-50.18,.67-1.63,1.49-2.2,3.23-2.15,4.17,.13,8.35,.04,12.63,.04V106.8h-15.26V40.95c-.14-.03-.29-.06-.43-.09-2.21,5.08-4.42,10.16-6.63,15.23-5.57,12.78-11.17,25.55-16.66,38.36-.69,1.62-1.53,2.25-3.27,2.11-2.53-.21-5.61,.61-7.47-.57-1.75-1.12-2.26-4.23-3.25-6.5-6.77-15.47-13.52-30.95-20.27-46.42-.28-.64-.6-1.25-1.27-1.87V106.77h-15.28V2.24Z"/>
        <path class="cls-1" d="M641.47,77.51V2.4h15.23V106.95c-4.89,0-9.68,.07-14.47-.08-.64-.02-1.42-1.03-1.85-1.75-11.84-19.76-23.63-39.54-35.44-59.32-2.3-3.86-4.62-7.7-7.33-11.5V106.83h-15.28V2.24c4.83,0,9.63-.07,14.43,.08,.63,.02,1.38,1.08,1.81,1.82,11.06,19.13,22.09,38.29,33.13,57.44,3.09,5.36,6.18,10.71,9.27,16.07,.17-.05,.34-.1,.51-.14Z"/>
        <path class="cls-1" d="M256.9,106.95c-5.77,0-11.05,.06-16.32-.07-.63-.02-1.49-.93-1.82-1.62-6.52-13.54-13.02-27.1-19.41-40.7-.76-1.61-1.63-2.1-3.33-2.06-5.51,.1-11.03,.04-16.78,.04v44.26h-15.25V2.39c.65-.05,1.33-.16,2.01-.15,13.45,.09,26.9,.07,40.34,.34,5.91,.12,11.71,1.32,17.18,3.73,7.08,3.12,11.61,8.46,13.33,15.99,1.62,7.08,1.43,14.19-.6,21.18-2.52,8.67-8.64,13.69-16.97,16.38-1.24,.4-2.5,.73-3.98,1.16,7.19,15.29,14.3,30.4,21.62,45.94Zm-57.69-59c7.79,0,15.31,.16,22.82-.07,3.37-.1,6.81-.66,10.06-1.58,7.07-2,10.37-6.62,10.4-13.86,.03-7.22-3.29-11.89-10.24-14.01-2.35-.72-4.83-1.31-7.27-1.39-7.99-.28-15.99-.31-23.99-.41-.58,0-1.17,.15-1.76,.23v31.1Z"/>
        <path class="cls-1" d="M166.88,54.82c-.25,10.32-1.21,20.78-5.47,30.67-6.19,14.36-17.01,22.24-32.68,23.46-8.28,.64-16.29-.25-23.79-3.96-9.93-4.91-15.77-13.31-19.15-23.53-3.83-11.59-4.38-23.55-3.45-35.64,.68-8.97,2.46-17.64,6.7-25.66,5.97-11.28,15.3-17.85,27.99-19.54,9.17-1.22,18.15-.64,26.59,3.47,10.21,4.97,16.03,13.63,19.49,24.09,2.84,8.56,3.58,17.43,3.76,26.65Zm-69.99-.29c.64,5.38,1.02,10.8,1.98,16.12,1.24,6.88,3.84,13.25,8.92,18.31,9.51,9.49,30.29,9.45,38.29-6.91,3.3-6.75,4.69-13.91,5.19-21.29,.71-10.54,.05-20.94-3.94-30.87-4.08-10.12-11.48-15.89-22.56-16.02-10.48-.12-18.06,4.83-22.53,14.33-3.92,8.32-4.94,17.21-5.35,26.33Z"/>
        <path class="cls-1" d="M336.14,32.37c-.64-12.64-12.38-18.22-23.57-17.83-5.12,.18-9.84,1.35-13.62,5.03-5.36,5.21-5.12,13.17,1.12,17.31,4.26,2.83,9.21,4.68,13.99,6.63,7.95,3.23,16.2,5.79,23.98,9.37,7.25,3.33,12.4,9.1,14.41,17.05,3.94,15.57-3.51,30.14-18.71,35.83-13.84,5.18-27.7,5.09-40.97-2.07-11.68-6.31-17.7-16.32-18.34-29.55-.03-.52,.45-1.42,.87-1.55,4.33-1.4,8.71-2.69,13.22-4.05,.54,2.51,.91,4.87,1.56,7.16,3.52,12.45,15.35,20.28,28.25,18.92,4.37-.46,8.56-1.3,12.37-3.64,9.81-6.03,10.06-18.81,.06-24.54-5.25-3.01-11.17-4.91-16.91-6.96-7.22-2.58-14.56-4.73-21.23-8.73-14.52-8.7-15.92-28.33-7.96-38.68,4.89-6.36,11.55-9.79,19.29-11.12,11.47-1.97,22.65-1.09,32.94,4.83,7.74,4.45,12.35,11.12,12.98,20.26,.1,1.49-.26,2.2-1.77,2.63-3.94,1.11-7.82,2.41-11.96,3.71Z"/>
        <path class="cls-1" d="M570.71,106.95c-5.03,0-9.91,.05-14.78-.08-.52-.01-1.23-1-1.48-1.68-2.37-6.39-4.69-12.79-6.93-19.22-.55-1.59-1.27-2.28-3.1-2.27-13.44,.09-26.89,.09-40.33,0-1.93-.01-2.64,.68-3.24,2.4-2.4,6.94-4.98,13.82-7.5,20.78h-15.76c.29-.87,.52-1.63,.8-2.37,12.35-33.39,24.71-66.77,37.02-100.18,.56-1.52,1.22-2.22,2.96-2.15,3.96,.15,7.93,.09,11.89,.02,1.35-.03,2.04,.35,2.54,1.71,12.45,33.76,24.96,67.51,37.45,101.26,.18,.5,.27,1.03,.46,1.78Zm-63.76-37.76h34.5c-5.71-15.9-11.33-31.53-16.95-47.17-.17,.04-.34,.07-.51,.11-5.65,15.61-11.3,31.22-17.04,47.07Z"/>
        <path class="cls-1" d="M15.41,46.57h51.14v14.25H15.36v45.97H0V2.42H68.3v14.09H15.41v30.06Z"/>
      </g>
      <g>
        <path class="cls-1" d="M231.84,154.69c-4.69,1.8-9.14,3.51-13.73,5.27-.88-1.91-1.64-3.67-2.5-5.38-5.91-11.67-15.48-16.72-28.39-15.46-11.66,1.14-19.43,7.63-23.11,18.47-4.96,14.64-4.99,29.5,.84,43.92,5.28,13.06,16.51,17.71,28.8,16.67,15.71-1.34,21.02-12.22,22.43-24.15,.24-2.06,.3-4.13,.46-6.39-15.12,0-30.02,0-45.12,0v-14.36h60.59v57.52h-15.36v-11.81c-2.55,2.65-4.79,5.51-7.55,7.73-5.4,4.35-11.93,5.97-18.71,6-13.83,.07-25.49-4.79-34.06-15.99-5.85-7.65-8.84-16.5-10.13-25.91-1.56-11.41-1.33-22.79,2.29-33.84,5.34-16.31,15.58-27.93,32.94-31.44,13.27-2.69,26.03-.95,36.97,7.92,6.73,5.45,10.69,12.75,13.35,21.23Z"/>
        <path class="cls-1" d="M420.01,230.96c-4.76,0-9.34,.07-13.91-.08-.74-.02-1.7-.89-2.13-1.62-9.47-15.76-18.87-31.55-28.29-47.34-4.37-7.33-8.75-14.65-13.12-21.98-.35-.58-.73-1.15-1.55-1.65v72.55h-15.11V126.24c4.81,0,9.54-.08,14.25,.09,.7,.03,1.54,1.14,2,1.93,13.74,23.77,27.43,47.57,41.14,71.36,.38,.66,.76,1.32,1.6,1.9V126.4h15.12v104.57Z"/>
        <path class="cls-1" d="M324.41,126.39v14.23c-.99,0-1.88,0-2.78,0-15.86,0-31.72,.04-47.59-.05-2.17-.01-2.76,.61-2.73,2.75,.12,8.24,.05,16.47,.05,24.71,0,.75,0,1.51,0,2.53h51.46v14.38c-.97,0-1.88,0-2.78,0-15.4,0-30.79,.03-46.19-.04-1.88,0-2.56,.44-2.53,2.44,.1,9.01,.04,18.03,.05,27.04,0,.61,.05,1.22,.09,2.05h52.87v14.4h-68.01V126.39h68.09Z"/>
        <path class="cls-1" d="M138.39,230.96c-5.03,0-9.77,.07-14.5-.08-.65-.02-1.56-1.06-1.84-1.81-2.42-6.45-4.78-12.92-7.03-19.43-.49-1.42-1.15-1.9-2.64-1.9-13.68,.05-27.36,.05-41.04,0-1.48,0-2.16,.45-2.66,1.88-2.23,6.44-4.67,12.8-6.88,19.24-.58,1.69-1.38,2.21-3.14,2.15-4.34-.14-8.69-.05-13.4-.05,.3-.98,.5-1.76,.78-2.51,12.34-33.32,24.7-66.63,36.98-99.97,.66-1.79,1.47-2.36,3.32-2.29,3.88,.15,7.77,.09,11.66,.02,1.26-.02,1.97,.32,2.43,1.57,12.51,33.92,25.06,67.82,37.59,101.73,.13,.35,.18,.73,.36,1.45Zm-29.27-37.71c-5.76-16.04-11.39-31.71-17.21-47.89-5.89,16.28-11.57,31.97-17.32,47.89h34.53Z"/>
        <path class="cls-1" d="M525.52,154.7c-4.57,1.75-9.09,3.49-13.68,5.25-1.23-2.72-2.27-5.31-3.53-7.78-5.1-10.01-13.76-13.52-24.46-13.19-11.61,.36-19.86,6.25-24.46,16.49-7.23,16.1-7.12,32.5,1.18,48.21,8.36,15.82,29.8,19.67,42.94,8.21,3.74-3.26,5.87-7.55,7.46-12.15,.25-.73,.45-1.47,.76-2.51,4.61,1.76,9.12,3.49,13.8,5.28-2.46,9.48-7.37,17.12-15.33,22.67-15.93,11.13-42.8,10.89-57.78-6.4-6.58-7.6-10.33-16.51-12.02-26.31-2.32-13.47-1.83-26.78,3.24-39.61,6.37-16.11,17.97-26.16,35.44-28.03,14.52-1.55,27.6,2.17,37.77,13.39,4.24,4.68,6.93,10.21,8.65,16.48Z"/>
        <path class="cls-1" d="M529.11,126.24c5.18,0,9.91-.09,14.63,.09,.77,.03,1.78,1.08,2.2,1.91,7.69,14.79,15.3,29.61,22.94,44.43,.38,.73,.79,1.45,1.31,2.42,.56-1.01,1.03-1.79,1.45-2.59,7.64-14.73,15.29-29.45,22.86-44.21,.78-1.51,1.63-2.14,3.37-2.09,4.4,.13,8.81,.04,13.55,.04-.54,1.1-.88,1.85-1.26,2.57-10.37,19.6-20.77,39.18-31.09,58.81-.72,1.37-1.13,3.06-1.14,4.61-.09,11.89-.05,23.78-.05,35.67v2.92h-15.24v-2.8c0-11.97,.04-23.94-.05-35.9-.01-1.55-.44-3.24-1.16-4.61-10.28-19.56-20.65-39.07-30.99-58.59-.39-.74-.75-1.5-1.33-2.66Z"/>
      </g>
    </g>
  </g>
</svg>